<mxfile host="app.diagrams.net" modified="2023-06-09T12:30:20.913Z" agent="Mozilla/5.0 (Windows NT 10.0; Win64; x64) AppleWebKit/537.36 (KHTML, like Gecko) Chrome/110.0.0.0 Safari/537.36" etag="hj33w2O3EppUb31IU7R6" version="21.3.8" type="device">
  <diagram name="Page-1" id="p7zMxf3rJaipu5S4d5rO">
    <mxGraphModel dx="750" dy="399" grid="1" gridSize="10" guides="1" tooltips="1" connect="1" arrows="1" fold="1" page="1" pageScale="1" pageWidth="827" pageHeight="1169" math="0" shadow="0">
      <root>
        <mxCell id="0" />
        <mxCell id="1" parent="0" />
        <mxCell id="yul_2bbhAxg7lX440Qxf-8" value="Invokes Interaction" style="edgeStyle=orthogonalEdgeStyle;rounded=0;orthogonalLoop=1;jettySize=auto;html=1;entryX=0;entryY=0.75;entryDx=0;entryDy=0;fillColor=#008a00;strokeColor=#005700;exitX=1;exitY=0.75;exitDx=0;exitDy=0;" edge="1" parent="1" source="yul_2bbhAxg7lX440Qxf-1" target="yul_2bbhAxg7lX440Qxf-2">
          <mxGeometry relative="1" as="geometry" />
        </mxCell>
        <mxCell id="yul_2bbhAxg7lX440Qxf-1" value="Client" style="rounded=1;whiteSpace=wrap;html=1;" vertex="1" parent="1">
          <mxGeometry y="200" width="120" height="60" as="geometry" />
        </mxCell>
        <mxCell id="yul_2bbhAxg7lX440Qxf-19" value="Fail Validation" style="edgeStyle=orthogonalEdgeStyle;rounded=0;orthogonalLoop=1;jettySize=auto;html=1;exitX=0;exitY=0.25;exitDx=0;exitDy=0;entryX=1;entryY=0.25;entryDx=0;entryDy=0;fillColor=#a20025;strokeColor=#6F0000;" edge="1" parent="1" source="yul_2bbhAxg7lX440Qxf-2" target="yul_2bbhAxg7lX440Qxf-1">
          <mxGeometry relative="1" as="geometry" />
        </mxCell>
        <mxCell id="yul_2bbhAxg7lX440Qxf-20" style="edgeStyle=orthogonalEdgeStyle;rounded=0;orthogonalLoop=1;jettySize=auto;html=1;exitX=0.5;exitY=0;exitDx=0;exitDy=0;entryX=0.5;entryY=0;entryDx=0;entryDy=0;" edge="1" parent="1" source="yul_2bbhAxg7lX440Qxf-2" target="yul_2bbhAxg7lX440Qxf-1">
          <mxGeometry relative="1" as="geometry" />
        </mxCell>
        <mxCell id="yul_2bbhAxg7lX440Qxf-21" value="&lt;font color=&quot;#00ff00&quot;&gt;Modal&lt;/font&gt; / &lt;font color=&quot;#00ff00&quot;&gt;Message&lt;/font&gt; / &lt;font color=&quot;#ff0000&quot;&gt;Fail&lt;/font&gt;" style="edgeLabel;html=1;align=center;verticalAlign=middle;resizable=0;points=[];" vertex="1" connectable="0" parent="yul_2bbhAxg7lX440Qxf-20">
          <mxGeometry x="-0.1602" relative="1" as="geometry">
            <mxPoint as="offset" />
          </mxGeometry>
        </mxCell>
        <mxCell id="yul_2bbhAxg7lX440Qxf-2" value="Revolt API" style="rounded=1;whiteSpace=wrap;html=1;" vertex="1" parent="1">
          <mxGeometry x="240" y="200" width="120" height="60" as="geometry" />
        </mxCell>
        <mxCell id="yul_2bbhAxg7lX440Qxf-14" value="Message" style="edgeStyle=orthogonalEdgeStyle;rounded=0;orthogonalLoop=1;jettySize=auto;html=1;entryX=0.5;entryY=1;entryDx=0;entryDy=0;fillColor=#008a00;strokeColor=#005700;exitX=0.5;exitY=1;exitDx=0;exitDy=0;" edge="1" parent="1" source="yul_2bbhAxg7lX440Qxf-5" target="yul_2bbhAxg7lX440Qxf-2">
          <mxGeometry relative="1" as="geometry">
            <Array as="points">
              <mxPoint x="540" y="310" />
              <mxPoint x="300" y="310" />
            </Array>
          </mxGeometry>
        </mxCell>
        <mxCell id="yul_2bbhAxg7lX440Qxf-16" value="Modal" style="edgeStyle=orthogonalEdgeStyle;rounded=0;orthogonalLoop=1;jettySize=auto;html=1;exitX=0.25;exitY=1;exitDx=0;exitDy=0;entryX=0.75;entryY=1;entryDx=0;entryDy=0;fillColor=#008a00;strokeColor=#005700;" edge="1" parent="1" source="yul_2bbhAxg7lX440Qxf-5" target="yul_2bbhAxg7lX440Qxf-2">
          <mxGeometry relative="1" as="geometry" />
        </mxCell>
        <mxCell id="yul_2bbhAxg7lX440Qxf-17" value="Fail Response" style="edgeStyle=orthogonalEdgeStyle;rounded=0;orthogonalLoop=1;jettySize=auto;html=1;exitX=0.75;exitY=1;exitDx=0;exitDy=0;entryX=0.25;entryY=1;entryDx=0;entryDy=0;fillColor=#a20025;strokeColor=#6F0000;" edge="1" parent="1" source="yul_2bbhAxg7lX440Qxf-5" target="yul_2bbhAxg7lX440Qxf-2">
          <mxGeometry relative="1" as="geometry">
            <mxPoint x="609.9999999999998" y="340" as="targetPoint" />
            <Array as="points">
              <mxPoint x="570" y="340" />
              <mxPoint x="270" y="340" />
            </Array>
          </mxGeometry>
        </mxCell>
        <mxCell id="yul_2bbhAxg7lX440Qxf-5" value="Bot" style="rounded=1;whiteSpace=wrap;html=1;" vertex="1" parent="1">
          <mxGeometry x="480" y="200" width="120" height="60" as="geometry" />
        </mxCell>
        <mxCell id="yul_2bbhAxg7lX440Qxf-6" value="Bot Gateway" style="endArrow=classic;html=1;rounded=0;exitX=1;exitY=0.25;exitDx=0;exitDy=0;entryX=0;entryY=0.25;entryDx=0;entryDy=0;fillColor=#1ba1e2;strokeColor=#006EAF;" edge="1" parent="1" source="yul_2bbhAxg7lX440Qxf-2" target="yul_2bbhAxg7lX440Qxf-5">
          <mxGeometry width="50" height="50" relative="1" as="geometry">
            <mxPoint x="400" y="250" as="sourcePoint" />
            <mxPoint x="450" y="200" as="targetPoint" />
          </mxGeometry>
        </mxCell>
        <mxCell id="yul_2bbhAxg7lX440Qxf-7" value="Bot Interaction URL" style="endArrow=classic;html=1;rounded=0;exitX=1;exitY=0.25;exitDx=0;exitDy=0;entryX=0;entryY=0.25;entryDx=0;entryDy=0;fillColor=#1ba1e2;strokeColor=#006EAF;" edge="1" parent="1">
          <mxGeometry width="50" height="50" relative="1" as="geometry">
            <mxPoint x="360" y="240" as="sourcePoint" />
            <mxPoint x="480" y="240" as="targetPoint" />
          </mxGeometry>
        </mxCell>
      </root>
    </mxGraphModel>
  </diagram>
</mxfile>
